<mxfile host="app.diagrams.net" agent="Mozilla/5.0 (Windows NT 10.0; Win64; x64) AppleWebKit/537.36 (KHTML, like Gecko) Chrome/134.0.0.0 Safari/537.36" version="26.1.1">
  <diagram name="Pagina-1" id="h8XKPJNPN0XHFtmpVUxb">
    <mxGraphModel dx="1290" dy="563" grid="1" gridSize="10" guides="1" tooltips="1" connect="1" arrows="1" fold="1" page="1" pageScale="1" pageWidth="827" pageHeight="1169" math="0" shadow="0">
      <root>
        <mxCell id="0" />
        <mxCell id="1" parent="0" />
        <mxCell id="jwdUzigDWLwzmKmt7_jE-51" value="" style="rounded=1;whiteSpace=wrap;html=1;fillStyle=auto;fillColor=#f5f5f5;fontColor=#333333;strokeColor=#666666;" parent="1" vertex="1">
          <mxGeometry x="414" y="451" width="170" height="300" as="geometry" />
        </mxCell>
        <mxCell id="jwdUzigDWLwzmKmt7_jE-22" value="" style="rounded=1;whiteSpace=wrap;html=1;fillStyle=auto;fillColor=#f5f5f5;fontColor=#333333;strokeColor=#666666;" parent="1" vertex="1">
          <mxGeometry x="594" y="446" width="310" height="307.5" as="geometry" />
        </mxCell>
        <mxCell id="O1P319-H71eKzeRK92Ye-28" value="" style="rounded=1;whiteSpace=wrap;html=1;fillStyle=auto;fillColor=#f5f5f5;fontColor=#333333;strokeColor=#666666;" parent="1" vertex="1">
          <mxGeometry x="924" y="451" width="286" height="300" as="geometry" />
        </mxCell>
        <mxCell id="O1P319-H71eKzeRK92Ye-3" value="DNS Server" style="text;strokeColor=none;align=center;fillColor=none;html=1;verticalAlign=middle;whiteSpace=wrap;rounded=0;" parent="1" vertex="1">
          <mxGeometry x="1121.5" y="467.66999999999996" width="60" height="30" as="geometry" />
        </mxCell>
        <mxCell id="O1P319-H71eKzeRK92Ye-5" value="SMTP Server" style="text;strokeColor=none;align=center;fillColor=none;html=1;verticalAlign=middle;whiteSpace=wrap;rounded=0;" parent="1" vertex="1">
          <mxGeometry x="1121.5" y="651" width="60" height="30" as="geometry" />
        </mxCell>
        <mxCell id="O1P319-H71eKzeRK92Ye-6" value="POP3&amp;nbsp;&lt;div&gt;Server&lt;/div&gt;" style="text;html=1;align=center;verticalAlign=middle;resizable=0;points=[];autosize=1;strokeColor=none;fillColor=none;" parent="1" vertex="1">
          <mxGeometry x="1041.5" y="646" width="60" height="40" as="geometry" />
        </mxCell>
        <mxCell id="O1P319-H71eKzeRK92Ye-29" value="LAN 1" style="text;strokeColor=none;align=center;fillColor=none;html=1;verticalAlign=middle;whiteSpace=wrap;rounded=0;" parent="1" vertex="1">
          <mxGeometry x="924" y="421" width="60" height="30" as="geometry" />
        </mxCell>
        <mxCell id="jwdUzigDWLwzmKmt7_jE-1" value="" style="verticalLabelPosition=bottom;html=1;verticalAlign=top;align=center;strokeColor=none;fillColor=#232F3D;shape=mxgraph.azure.laptop;pointerEvents=1;" parent="1" vertex="1">
          <mxGeometry x="769" y="511" width="50" height="30" as="geometry" />
        </mxCell>
        <mxCell id="jwdUzigDWLwzmKmt7_jE-4" value="" style="verticalLabelPosition=bottom;html=1;verticalAlign=top;align=center;strokeColor=none;fillColor=#232F3D;shape=mxgraph.azure.mobile;pointerEvents=1;" parent="1" vertex="1">
          <mxGeometry x="621.75" y="505.1700000000001" width="29.5" height="41.66" as="geometry" />
        </mxCell>
        <mxCell id="jwdUzigDWLwzmKmt7_jE-5" value="" style="verticalLabelPosition=bottom;html=1;verticalAlign=top;align=center;strokeColor=none;fillColor=#232F3D;shape=mxgraph.azure.computer;pointerEvents=1;" parent="1" vertex="1">
          <mxGeometry x="673.25" y="507.25" width="51.5" height="37.5" as="geometry" />
        </mxCell>
        <mxCell id="jwdUzigDWLwzmKmt7_jE-6" value="" style="verticalLabelPosition=bottom;html=1;verticalAlign=top;align=center;strokeColor=none;fillColor=#232F3D;shape=mxgraph.azure.laptop;pointerEvents=1;" parent="1" vertex="1">
          <mxGeometry x="834" y="511" width="50" height="30" as="geometry" />
        </mxCell>
        <mxCell id="jwdUzigDWLwzmKmt7_jE-7" value="Mobile" style="text;strokeColor=none;align=center;fillColor=none;html=1;verticalAlign=middle;whiteSpace=wrap;rounded=0;" parent="1" vertex="1">
          <mxGeometry x="606.5" y="477.25" width="60" height="30" as="geometry" />
        </mxCell>
        <mxCell id="jwdUzigDWLwzmKmt7_jE-8" value="Desktop 1" style="text;strokeColor=none;align=center;fillColor=none;html=1;verticalAlign=middle;whiteSpace=wrap;rounded=0;" parent="1" vertex="1">
          <mxGeometry x="669" y="477.25" width="60" height="30" as="geometry" />
        </mxCell>
        <mxCell id="jwdUzigDWLwzmKmt7_jE-9" value="Laptop 1" style="text;strokeColor=none;align=center;fillColor=none;html=1;verticalAlign=middle;whiteSpace=wrap;rounded=0;" parent="1" vertex="1">
          <mxGeometry x="764" y="477.25" width="60" height="30" as="geometry" />
        </mxCell>
        <mxCell id="jwdUzigDWLwzmKmt7_jE-10" value="Laptop 2" style="text;strokeColor=none;align=center;fillColor=none;html=1;verticalAlign=middle;whiteSpace=wrap;rounded=0;" parent="1" vertex="1">
          <mxGeometry x="829" y="477.25" width="60" height="30" as="geometry" />
        </mxCell>
        <mxCell id="jwdUzigDWLwzmKmt7_jE-11" value="" style="points=[[0.03,0.36,0],[0.18,0,0],[0.5,0.34,0],[0.82,0,0],[0.97,0.36,0],[1,0.67,0],[0.975,0.975,0],[0.5,1,0],[0.025,0.975,0],[0,0.67,0]];verticalLabelPosition=bottom;sketch=0;html=1;verticalAlign=top;aspect=fixed;align=center;pointerEvents=1;shape=mxgraph.cisco19.wireless_access_point;fillColor=#232F3D;strokeColor=none;" parent="1" vertex="1">
          <mxGeometry x="724" y="591" width="50" height="50" as="geometry" />
        </mxCell>
        <mxCell id="jwdUzigDWLwzmKmt7_jE-45" style="edgeStyle=orthogonalEdgeStyle;rounded=0;orthogonalLoop=1;jettySize=auto;html=1;exitX=1;exitY=0.5;exitDx=0;exitDy=0;exitPerimeter=0;" parent="1" source="jwdUzigDWLwzmKmt7_jE-12" target="jwdUzigDWLwzmKmt7_jE-36" edge="1">
          <mxGeometry relative="1" as="geometry" />
        </mxCell>
        <mxCell id="jwdUzigDWLwzmKmt7_jE-12" value="" style="sketch=0;points=[[0.015,0.015,0],[0.985,0.015,0],[0.985,0.985,0],[0.015,0.985,0],[0.25,0,0],[0.5,0,0],[0.75,0,0],[1,0.25,0],[1,0.5,0],[1,0.75,0],[0.75,1,0],[0.5,1,0],[0.25,1,0],[0,0.75,0],[0,0.5,0],[0,0.25,0]];verticalLabelPosition=bottom;html=1;verticalAlign=top;aspect=fixed;align=center;pointerEvents=1;shape=mxgraph.cisco19.rect;prIcon=firewall;fillColor=#FFFFFF;strokeColor=#232F3D;" parent="1" vertex="1">
          <mxGeometry x="717" y="673.5" width="64" height="50" as="geometry" />
        </mxCell>
        <mxCell id="jwdUzigDWLwzmKmt7_jE-13" style="edgeStyle=orthogonalEdgeStyle;rounded=0;orthogonalLoop=1;jettySize=auto;html=1;exitX=0.5;exitY=1;exitDx=0;exitDy=0;exitPerimeter=0;entryX=0.5;entryY=0;entryDx=0;entryDy=0;entryPerimeter=0;" parent="1" source="jwdUzigDWLwzmKmt7_jE-11" target="jwdUzigDWLwzmKmt7_jE-12" edge="1">
          <mxGeometry relative="1" as="geometry" />
        </mxCell>
        <mxCell id="jwdUzigDWLwzmKmt7_jE-20" value="Wireless AP" style="text;strokeColor=none;align=center;fillColor=none;html=1;verticalAlign=middle;whiteSpace=wrap;rounded=0;" parent="1" vertex="1">
          <mxGeometry x="719" y="571" width="60" height="30" as="geometry" />
        </mxCell>
        <mxCell id="jwdUzigDWLwzmKmt7_jE-21" value="Firewall" style="text;strokeColor=none;align=center;fillColor=none;html=1;verticalAlign=middle;whiteSpace=wrap;rounded=0;" parent="1" vertex="1">
          <mxGeometry x="719" y="723.5" width="60" height="30" as="geometry" />
        </mxCell>
        <mxCell id="jwdUzigDWLwzmKmt7_jE-23" value="LAN 2" style="text;strokeColor=none;align=center;fillColor=none;html=1;verticalAlign=middle;whiteSpace=wrap;rounded=0;" parent="1" vertex="1">
          <mxGeometry x="594" y="416" width="60" height="30" as="geometry" />
        </mxCell>
        <mxCell id="jwdUzigDWLwzmKmt7_jE-29" value="" style="edgeStyle=orthogonalEdgeStyle;rounded=0;orthogonalLoop=1;jettySize=auto;html=1;" parent="1" source="jwdUzigDWLwzmKmt7_jE-24" target="jwdUzigDWLwzmKmt7_jE-26" edge="1">
          <mxGeometry relative="1" as="geometry" />
        </mxCell>
        <mxCell id="jwdUzigDWLwzmKmt7_jE-38" style="edgeStyle=orthogonalEdgeStyle;rounded=0;orthogonalLoop=1;jettySize=auto;html=1;" parent="1" source="jwdUzigDWLwzmKmt7_jE-27" target="jwdUzigDWLwzmKmt7_jE-36" edge="1">
          <mxGeometry relative="1" as="geometry" />
        </mxCell>
        <mxCell id="jwdUzigDWLwzmKmt7_jE-24" value="" style="sketch=0;outlineConnect=0;fontColor=#232F3E;gradientColor=none;fillColor=#232F3D;strokeColor=none;dashed=0;verticalLabelPosition=bottom;verticalAlign=top;align=center;html=1;fontSize=12;fontStyle=0;aspect=fixed;pointerEvents=1;shape=mxgraph.aws4.traditional_server;" parent="1" vertex="1">
          <mxGeometry x="1139" y="497.6700000000001" width="25" height="43.33" as="geometry" />
        </mxCell>
        <mxCell id="jwdUzigDWLwzmKmt7_jE-60" value="" style="edgeStyle=orthogonalEdgeStyle;rounded=0;orthogonalLoop=1;jettySize=auto;html=1;" parent="1" source="jwdUzigDWLwzmKmt7_jE-26" target="jwdUzigDWLwzmKmt7_jE-27" edge="1">
          <mxGeometry relative="1" as="geometry" />
        </mxCell>
        <mxCell id="jwdUzigDWLwzmKmt7_jE-26" value="" style="sketch=0;outlineConnect=0;fontColor=#232F3E;gradientColor=none;fillColor=#232F3D;strokeColor=none;dashed=0;verticalLabelPosition=bottom;verticalAlign=top;align=center;html=1;fontSize=12;fontStyle=0;aspect=fixed;pointerEvents=1;shape=mxgraph.aws4.traditional_server;" parent="1" vertex="1">
          <mxGeometry x="1139" y="602.6800000000001" width="25" height="43.33" as="geometry" />
        </mxCell>
        <mxCell id="jwdUzigDWLwzmKmt7_jE-37" style="edgeStyle=orthogonalEdgeStyle;rounded=0;orthogonalLoop=1;jettySize=auto;html=1;" parent="1" source="jwdUzigDWLwzmKmt7_jE-27" target="jwdUzigDWLwzmKmt7_jE-36" edge="1">
          <mxGeometry relative="1" as="geometry" />
        </mxCell>
        <mxCell id="jwdUzigDWLwzmKmt7_jE-36" value="" style="sketch=0;verticalLabelPosition=bottom;sketch=0;aspect=fixed;html=1;verticalAlign=top;strokeColor=none;fillColor=#232F3D;align=center;outlineConnect=0;pointerEvents=1;shape=mxgraph.citrix2.router;" parent="1" vertex="1">
          <mxGeometry x="942.5" y="673.5" width="50" height="50" as="geometry" />
        </mxCell>
        <mxCell id="jwdUzigDWLwzmKmt7_jE-40" style="edgeStyle=orthogonalEdgeStyle;rounded=0;orthogonalLoop=1;jettySize=auto;html=1;entryX=1;entryY=0.67;entryDx=0;entryDy=0;entryPerimeter=0;" parent="1" source="jwdUzigDWLwzmKmt7_jE-6" target="jwdUzigDWLwzmKmt7_jE-11" edge="1">
          <mxGeometry relative="1" as="geometry">
            <Array as="points">
              <mxPoint x="859.5" y="625" />
              <mxPoint x="804.5" y="625" />
            </Array>
          </mxGeometry>
        </mxCell>
        <mxCell id="jwdUzigDWLwzmKmt7_jE-41" style="edgeStyle=orthogonalEdgeStyle;rounded=0;orthogonalLoop=1;jettySize=auto;html=1;exitX=0.5;exitY=1;exitDx=0;exitDy=0;exitPerimeter=0;entryX=1;entryY=0.67;entryDx=0;entryDy=0;entryPerimeter=0;" parent="1" source="jwdUzigDWLwzmKmt7_jE-1" target="jwdUzigDWLwzmKmt7_jE-11" edge="1">
          <mxGeometry relative="1" as="geometry" />
        </mxCell>
        <mxCell id="jwdUzigDWLwzmKmt7_jE-42" style="edgeStyle=orthogonalEdgeStyle;rounded=0;orthogonalLoop=1;jettySize=auto;html=1;exitX=0.5;exitY=1;exitDx=0;exitDy=0;exitPerimeter=0;entryX=0;entryY=0.67;entryDx=0;entryDy=0;entryPerimeter=0;" parent="1" source="jwdUzigDWLwzmKmt7_jE-5" target="jwdUzigDWLwzmKmt7_jE-11" edge="1">
          <mxGeometry relative="1" as="geometry" />
        </mxCell>
        <mxCell id="jwdUzigDWLwzmKmt7_jE-43" style="edgeStyle=orthogonalEdgeStyle;rounded=0;orthogonalLoop=1;jettySize=auto;html=1;exitX=0.5;exitY=1;exitDx=0;exitDy=0;exitPerimeter=0;entryX=0;entryY=0.67;entryDx=0;entryDy=0;entryPerimeter=0;" parent="1" source="jwdUzigDWLwzmKmt7_jE-4" target="jwdUzigDWLwzmKmt7_jE-11" edge="1">
          <mxGeometry relative="1" as="geometry" />
        </mxCell>
        <mxCell id="jwdUzigDWLwzmKmt7_jE-44" value="Router" style="text;strokeColor=none;align=center;fillColor=none;html=1;verticalAlign=middle;whiteSpace=wrap;rounded=0;" parent="1" vertex="1">
          <mxGeometry x="937.5" y="721" width="60" height="30" as="geometry" />
        </mxCell>
        <mxCell id="jwdUzigDWLwzmKmt7_jE-48" value="" style="edgeStyle=orthogonalEdgeStyle;rounded=0;orthogonalLoop=1;jettySize=auto;html=1;" parent="1" source="jwdUzigDWLwzmKmt7_jE-46" target="jwdUzigDWLwzmKmt7_jE-47" edge="1">
          <mxGeometry relative="1" as="geometry" />
        </mxCell>
        <mxCell id="jwdUzigDWLwzmKmt7_jE-46" value="" style="sketch=0;outlineConnect=0;fontColor=#232F3E;gradientColor=none;fillColor=#232F3D;strokeColor=none;dashed=0;verticalLabelPosition=bottom;verticalAlign=top;align=center;html=1;fontSize=12;fontStyle=0;aspect=fixed;pointerEvents=1;shape=mxgraph.aws4.traditional_server;" parent="1" vertex="1">
          <mxGeometry x="491.5" y="505.1700000000001" width="25" height="43.33" as="geometry" />
        </mxCell>
        <mxCell id="jwdUzigDWLwzmKmt7_jE-47" value="" style="verticalLabelPosition=bottom;html=1;verticalAlign=top;align=center;strokeColor=none;fillColor=#232F3D;shape=mxgraph.azure.computer;pointerEvents=1;" parent="1" vertex="1">
          <mxGeometry x="478.25" y="593.08" width="51.5" height="37.5" as="geometry" />
        </mxCell>
        <mxCell id="jwdUzigDWLwzmKmt7_jE-49" value="VPN&lt;div&gt;Server&lt;/div&gt;" style="text;strokeColor=none;align=center;fillColor=none;html=1;verticalAlign=middle;whiteSpace=wrap;rounded=0;" parent="1" vertex="1">
          <mxGeometry x="474" y="477.25" width="60" height="30" as="geometry" />
        </mxCell>
        <mxCell id="jwdUzigDWLwzmKmt7_jE-50" value="Desktop 2" style="text;strokeColor=none;align=center;fillColor=none;html=1;verticalAlign=middle;whiteSpace=wrap;rounded=0;" parent="1" vertex="1">
          <mxGeometry x="474" y="630.58" width="60" height="30" as="geometry" />
        </mxCell>
        <mxCell id="jwdUzigDWLwzmKmt7_jE-52" style="edgeStyle=orthogonalEdgeStyle;rounded=0;orthogonalLoop=1;jettySize=auto;html=1;entryX=0;entryY=0.5;entryDx=0;entryDy=0;entryPerimeter=0;" parent="1" source="jwdUzigDWLwzmKmt7_jE-46" target="jwdUzigDWLwzmKmt7_jE-12" edge="1">
          <mxGeometry relative="1" as="geometry">
            <Array as="points">
              <mxPoint x="564" y="527" />
              <mxPoint x="564" y="699" />
            </Array>
          </mxGeometry>
        </mxCell>
        <mxCell id="jwdUzigDWLwzmKmt7_jE-56" value="" style="edgeStyle=orthogonalEdgeStyle;rounded=0;orthogonalLoop=1;jettySize=auto;html=1;" parent="1" source="jwdUzigDWLwzmKmt7_jE-24" target="jwdUzigDWLwzmKmt7_jE-27" edge="1">
          <mxGeometry relative="1" as="geometry">
            <mxPoint x="1076.5" y="519" as="sourcePoint" />
            <mxPoint x="989.5" y="686" as="targetPoint" />
          </mxGeometry>
        </mxCell>
        <mxCell id="jwdUzigDWLwzmKmt7_jE-27" value="" style="sketch=0;outlineConnect=0;fontColor=#232F3E;gradientColor=none;fillColor=#232F3D;strokeColor=none;dashed=0;verticalLabelPosition=bottom;verticalAlign=top;align=center;html=1;fontSize=12;fontStyle=0;aspect=fixed;pointerEvents=1;shape=mxgraph.aws4.traditional_server;" parent="1" vertex="1">
          <mxGeometry x="1059" y="602.6800000000001" width="25" height="43.33" as="geometry" />
        </mxCell>
        <mxCell id="gAMpiPSopEpPgNPu2A_v-1" value="REMOTE" style="text;strokeColor=none;align=center;fillColor=none;html=1;verticalAlign=middle;whiteSpace=wrap;rounded=0;" parent="1" vertex="1">
          <mxGeometry x="414" y="416" width="60" height="30" as="geometry" />
        </mxCell>
      </root>
    </mxGraphModel>
  </diagram>
</mxfile>
